<svg width="119" height="27" viewBox="0 0 119 27" fill="none" xmlns="http://www.w3.org/2000/svg">
<path fill-rule="evenodd" clip-rule="evenodd" d="M70.8923 7.12853C70.3368 7.37441 69.9847 7.93068 70.0005 8.53736V8.55695C69.9968 8.95547 70.1598 9.33744 70.4502 9.61076C70.7405 9.88408 71.1319 10.0239 71.5299 9.99663C72.1373 9.98453 72.6774 9.60764 72.8978 9.0421C73.1182 8.47656 72.9753 7.83406 72.536 7.41489C72.0967 6.99572 71.4477 6.88265 70.8923 7.12853ZM37 8H34V20H37V8ZM42.5 10C39.7692 10 38 11.6799 38 14.4953C38 17.3577 39.7308 19 42.5 19C45.2692 19 47 17.3107 47 14.4953C47 11.6799 45.2308 10 42.5 10ZM44 15.5096C44 13.9291 43.4144 13 42.4955 13C41.5766 13 41 13.9579 41 15.5096C41 17.0613 41.5676 18 42.4955 18C43.4234 18 44 17.1188 44 15.5192V15.5096ZM52.2521 20.3066H49.2013V20.316C49.3814 21.8793 51.1292 23 53.9364 23C56.9555 23 59 21.7192 59 19.6568V14.5047C59 17.367 60.7193 19 63.4952 19C66.2711 19 68 17.3107 68 14.4953C68 11.6799 66.2231 10 63.4952 10C60.7673 10 59 11.6799 59 14.4953V11.0868H55.822V12.6596C55.3321 11.6187 54.1665 10.9579 52.8983 11.0021C50.4619 11.0021 49 12.7067 49 15.4095C49 18.1123 50.536 19.685 52.8559 19.685C54.0845 19.7444 55.2298 19.1327 55.7479 18.1406H55.8114V19.7227C55.8114 20.5703 55.1758 21.1542 53.9682 21.1542C53.2483 21.2402 52.5503 20.8955 52.2521 20.3066ZM55 15.5427C55 13.9829 54.4157 13 53.4913 13C52.5669 13 52 13.9722 52 15.5427C52 17.1132 52.5581 18 53.4913 18C54.4244 18 55 17.1346 55 15.5534V15.5427ZM65 15.5C65 13.9256 64.4055 13 63.4726 13C62.5396 13 62 13.9637 62 15.5191C62 17.0744 62.5762 18 63.5091 18C64.4421 18 65 17.1126 65 15.5191V15.5ZM70 11H73V20H70V11ZM80.1619 20.2427C82.5594 20.2427 83.9579 18.5707 83.9579 15.6374L84 15.657C84 12.7237 82.5594 11.0419 80.1409 11.0028C78.8719 10.9501 77.7033 11.642 77.2177 12.7335H77.1546V11.1299H74V23H77.1546V18.5805H77.2177C77.7269 19.6541 78.9027 20.3179 80.1619 20.2427ZM80 15.5052C80 13.9748 79.4174 13 78.5044 13C77.5914 13 77.0088 13.9853 77.0001 15.5052C76.9914 17.0252 77.5914 18 78.5044 18C79.4174 18 80 17.0461 80 15.5262V15.5052ZM93.7601 12.8811C93.6871 11.1074 92.1124 10 89.5156 10V10.0188C86.9293 10.0188 85.2503 11.1168 85.2294 12.806C85.2294 14.1199 86.2097 15.0115 88.0765 15.3587L89.8806 15.7059C90.6315 15.8467 90.9235 15.9406 90.9235 16.391C90.9235 16.8415 90.5064 17.1137 89.5886 17.1137C88.6709 17.1137 88.1078 16.7383 88.0139 16.1001H85C85.1356 17.8551 86.8772 19 89.5365 19C92.1958 19 94 17.8551 94 16.0719C94 14.7675 93.1866 14.073 91.2781 13.707L89.2758 13.341C88.5771 13.2096 88.2329 13.0688 88.2329 12.6277C88.2329 12.1867 88.6188 11.8863 89.4844 11.8863C90.3499 11.8863 90.9131 12.2711 90.9131 12.8811H93.7601ZM102.96 19.8033H100.077V18.1634H100.017C99.6905 19.2978 98.5858 20.0602 97.3632 19.9951C96.4431 20.0453 95.5456 19.7098 94.9026 19.0752C94.2597 18.4407 93.9344 17.5694 94.011 16.6866V11H97.004V16.025C97.004 17.0702 97.5627 17.6264 98.4905 17.6264C98.9307 17.6273 99.3498 17.4455 99.6404 17.1276C99.9309 16.8098 100.065 16.3869 100.007 15.9674V11H103L102.96 19.8033ZM107.938 10.1706H105.05L105 19H107.988V13.8079C107.942 13.4428 108.061 13.0763 108.314 12.8012C108.567 12.526 108.931 12.3684 109.312 12.3683C110.129 12.3683 110.577 12.8482 110.577 13.7311V19H113.415V13.7887C113.366 13.428 113.482 13.0646 113.732 12.7922C113.982 12.5199 114.342 12.3653 114.72 12.3683C115.556 12.3683 116.005 12.8098 116.005 13.7695V19H118.992V13.0017C119.052 12.2115 118.761 11.434 118.191 10.8629C117.621 10.2918 116.826 9.98081 116.005 10.0074C114.724 9.95437 113.568 10.7442 113.196 11.9269H113.136C112.938 10.7472 111.833 9.91202 110.597 10.0074C109.392 9.98595 108.324 10.7511 107.998 11.8693H107.938V10.1706Z" fill="#696871"/>
<path fill-rule="evenodd" clip-rule="evenodd" d="M23.8949 4.94937C24.7085 5.91694 25.3788 6.99651 25.8853 8.15493C26.6231 9.84393 27.0026 11.6676 27 13.5108C26.9945 20.9506 20.9722 26.9835 13.5345 27C11.8039 26.999 10.0901 26.6609 8.4887 26.0045C7.34652 25.5505 6.27432 24.9372 5.30396 24.1827C1.17673 21.0364 -0.775871 15.7979 0.284738 10.7168C1.34535 5.63575 5.23041 1.61643 10.2714 0.38502C15.3125 -0.846393 20.6123 0.92925 23.8949 4.94937ZM18 3.99222C16.6136 3.3513 15.103 3.01929 13.5739 3.01946L13.5836 3C9.95758 2.99732 6.58293 4.84025 4.64222 7.88302C2.70152 10.9258 2.46537 14.7441 4.01652 18C4.45883 17.5384 4.7314 16.942 4.79012 16.3074C5.14627 13.8632 7.07899 11.9433 9.53941 11.5895C10.9276 11.4644 12.0362 10.3875 12.1931 9.01167C12.5493 6.56753 14.482 4.64758 16.9424 4.29378C17.3065 4.23867 17.6619 4.13733 18 3.99222ZM5 19.7818C5.0387 19.7463 5.0774 19.7118 5.1161 19.6774L5.11615 19.6773C5.19354 19.6085 5.27093 19.5396 5.34832 19.4621C6.20911 18.6266 6.76165 17.5237 6.91577 16.3333C6.97825 15.6642 7.27666 15.0393 7.75754 14.5704C8.22027 14.0881 8.84311 13.7919 9.50882 13.7373C11.9399 13.385 13.8496 11.4732 14.2015 9.03932C14.2433 8.33947 14.5433 7.68013 15.0433 7.18917C15.5174 6.71632 16.1462 6.43081 16.8139 6.38519C17.9013 6.2354 18.9156 5.7514 19.7166 5C20.6286 5.75756 21.4014 6.6689 22 7.69288C21.9632 7.74262 21.921 7.7881 21.8742 7.82849C21.4124 8.31495 20.7903 8.61772 20.1229 8.68091C17.6888 9.02715 15.7761 10.942 15.4303 13.3789C15.2897 14.7538 14.2014 15.8393 12.8275 15.9749C10.3897 16.3245 8.47006 18.2345 8.10586 20.6729C8.05379 21.1464 7.8914 21.6009 7.63176 22C6.63904 21.4099 5.74994 20.6605 5 19.7818ZM11 24.5686C11.9911 24.8559 13.0173 25.0011 14.0483 25V24.9486C17.4514 24.9353 20.6564 23.3297 22.7281 20.6005C24.7997 17.8713 25.5043 14.3262 24.6362 11C23.8648 11.5514 22.9718 11.904 22.0349 12.0271C20.5962 12.1755 19.4586 13.3255 19.3118 14.7799C18.9411 17.3639 16.9305 19.3921 14.3735 19.7616C12.9347 19.9099 11.7971 21.0599 11.6503 22.5143C11.5594 23.2335 11.339 23.9297 11 24.5686Z" fill="#696871"/>
</svg>
