<svg width="127" height="30" viewBox="0 0 127 30" fill="none" xmlns="http://www.w3.org/2000/svg">
<path fill-rule="evenodd" clip-rule="evenodd" d="M74.8816 8.13342C74.3237 8.38586 73.9752 8.95206 74.0014 9.5638L74.0197 9.57294C74.0244 9.95939 74.1838 10.3278 74.4623 10.5959C74.7407 10.864 75.1149 11.0093 75.5013 10.9995C76.1137 10.999 76.6643 10.6263 76.8922 10.0579C77.1201 9.48963 76.9796 8.83985 76.5372 8.41643C76.0949 7.99302 75.4395 7.88099 74.8816 8.13342ZM39 9H36V22H39V9ZM46 12C43 12 41 14.0572 41 17.4893C41 20.9961 42.93 23 46 23C49.07 23 51 20.9215 51 17.4893C51 14.0572 49 12 46 12ZM47.9777 17.0053C47.9777 15.1123 47.2089 14 45.9833 14C44.7577 14 44 15.0695 44 17.0053C44 18.9412 44.7577 20 45.9833 20C47.2089 20 48 18.9412 48 17.016L47.9777 17.0053ZM55.2607 22.8397H52.1883L52.2081 22.85C52.3865 24.6866 54.1506 25.9897 56.9058 26C59.9386 26 62 24.4917 62 22.0804V12.0866H58.8484V13.7414C58.3103 12.6261 57.1803 11.9372 55.9643 12.0045C53.4767 12.0045 52 13.9746 52 17.1348C52 20.2951 53.5461 22.1318 55.8751 22.1318C57.1218 22.2263 58.2966 21.522 58.8385 20.3576V22.1831C58.8385 23.1886 58.2042 23.8658 56.9851 23.8658C56.2531 23.963 55.5481 23.5435 55.2607 22.8397ZM59 17.5397C59 15.9821 58.2216 15 56.9892 15C55.7568 15 55 15.9921 55 17.5397C55 19.0873 55.7459 20 56.9892 20C58.2324 20 59 19.1567 59 17.5397ZM68 12C65 12 63 14.0572 63 17.4893H63.02C63.02 20.9961 64.94 23 68 23C71.06 23 73 20.9215 73 17.4893C73 14.0572 71 12 68 12ZM69.9777 17.0053C69.9777 15.1123 69.1978 14 67.9833 14C66.7688 14 66 15.0695 66 17.0053C66 18.9412 66.7577 20 67.9833 20C69.2089 20 70 18.9412 70 17.016L69.9777 17.0053ZM74 12H77V22H74.0462L74 12ZM85.135 22.0031C87.5323 22.0031 88.9413 20.1634 88.9413 16.9884L89 16.9983C89 13.8135 87.5812 11.9837 85.1155 12.0035C83.843 11.9423 82.6692 12.6938 82.18 13.8827H82.1213V12.1419H79V25H82.1409V20.1931H82.1996C82.7059 21.3588 83.8779 22.0815 85.135 22.0031ZM85.9363 17.5049C85.9363 15.9844 85.1618 15 83.9629 15C82.764 15 82.0107 15.9747 82.0001 17.5049C81.9895 19.0351 82.764 20 83.9629 20C85.1618 20 86 19.0936 86 17.5146L85.9363 17.5049ZM98.7379 15.5281C98.7184 13.3537 97.0971 12 94.4854 12L94.5437 12.0107C91.9126 12.0107 90.2816 13.343 90.2233 15.4322C90.2233 17.0417 91.2039 18.1182 93.0777 18.5552L94.8835 18.9709C95.6311 19.1415 95.9223 19.2374 95.9223 19.8023C95.9223 20.3672 95.4951 20.687 94.5825 20.687C93.6699 20.687 93.1068 20.2287 93.0194 19.4506H90C90.1262 21.593 91.8641 23 94.534 23C97.2039 23 99 21.5504 99 19.4186C99 17.8304 98.2233 16.9777 96.2816 16.53L94.2816 16.0824C93.5631 15.9225 93.2039 15.7519 93.2039 15.2083C93.2039 14.6647 93.6116 14.3023 94.466 14.3023C95.3204 14.3023 95.8932 14.7713 95.8932 15.5281H98.7379ZM110.938 21.7965H107.712V19.9547H107.65C107.278 21.2202 106.041 22.0684 104.673 21.9957C103.659 22.0273 102.68 21.642 101.98 20.9365C101.281 20.231 100.929 19.2725 101.012 18.302V12H104.341V17.6151C104.341 18.77 104.974 19.3972 106.011 19.3972C106.504 19.3936 106.97 19.1855 107.29 18.8265C107.611 18.4676 107.753 17.993 107.681 17.5255V12H111L110.938 21.7965ZM115.096 12.1888H112L112.02 22H115.205V16.2088C115.153 15.8015 115.28 15.3917 115.551 15.0847C115.823 14.7777 116.214 14.6035 116.623 14.6068C117.497 14.6068 117.983 15.1341 117.983 16.1292V22H121.019V16.1889C120.964 15.7862 121.087 15.3795 121.356 15.0754C121.624 14.7713 122.012 14.6001 122.418 14.6068C123.32 14.6068 123.787 15.164 123.787 16.1591V22H126.991V15.3431C127.057 14.4615 126.745 13.5936 126.133 12.9571C125.521 12.3207 124.668 11.9761 123.787 12.0097C122.439 11.9464 121.218 12.7998 120.81 14.0893H120.671C120.436 12.7966 119.258 11.8959 117.953 12.0097C116.662 11.9833 115.517 12.8338 115.165 14.0794H115.096V12.1888Z" fill="#696871"/>
<path fill-rule="evenodd" clip-rule="evenodd" d="M30 10.0344C30.0002 5.89752 27.4698 2.18457 23.6276 0.683857C19.7854 -0.816854 15.419 0.202361 12.6316 3.25062H0V30H26.67V17.4987C28.7871 15.5987 29.9981 12.8844 30 10.0344ZM25 9.98955C25.0042 12.0128 23.7887 13.8391 21.9207 14.6163C20.0526 15.3934 17.9004 14.9682 16.4683 13.5391C15.0361 12.1099 14.6065 9.95856 15.3797 8.08894C16.153 6.21932 17.9768 5 20.0001 5C22.7574 4.99999 24.9943 7.23222 25 9.98955ZM5 24H21V19.2296C20.5008 19.3124 19.9958 19.3553 19.4898 19.358C14.1007 19.3526 9.73339 14.9825 9.72795 9.59012C9.73228 9.05685 9.78181 8.5249 9.876 8H5V24Z" fill="#696871"/>
</svg>
