<svg width="100" height="48" viewBox="0 0 100 48" fill="none" xmlns="http://www.w3.org/2000/svg">
<path d="M0 29H3V44H0V29Z" fill="#696871"/>
<path fill-rule="evenodd" clip-rule="evenodd" d="M8.38822 33.4218C6.33342 34.2763 4.99608 36.2848 5.00025 38.5102C4.98631 39.9721 5.56161 41.3781 6.59636 42.4109C7.63111 43.4437 9.03815 44.0163 10.5 43.9996C12.7254 43.9996 14.7315 42.6586 15.5822 40.6022C16.4328 38.5458 15.9604 36.1795 14.3853 34.6074C12.8103 33.0353 10.443 32.5673 8.38822 33.4218ZM10.4559 36.0004C11.8271 35.9769 12.961 37.0634 12.9965 38.4349C13.0329 39.1141 12.7836 39.7776 12.3089 40.2647C11.8343 40.7518 11.1776 41.0181 10.4978 40.999C9.12637 40.9986 8.01161 39.8924 8.00009 38.5205C7.98857 37.1486 9.08461 36.0239 10.4559 36.0004Z" fill="#696871"/>
<path fill-rule="evenodd" clip-rule="evenodd" d="M27 43.0664V33.2896L24.0527 33.3202V34.3407C23.335 33.4466 22.2461 32.951 21.1153 33.0038C18.2902 33.0038 16 35.3432 16 38.229C16 41.1148 18.2902 43.4542 21.1153 43.4542C22.247 43.512 23.3379 43.0155 24.0527 42.1173V43.0664C24.1107 43.6972 23.8788 44.3197 23.4249 44.7514C22.971 45.183 22.3465 45.375 21.7348 45.2708C20.7963 45.3501 19.9054 44.8365 19.4868 43.9747L16.9092 45.4953C17.9167 47.1706 19.7554 48.1313 21.6748 47.9855C24.3524 47.9855 27 46.5261 27 43.0664ZM22.5278 36.2208C23.4578 36.6398 24.0397 37.5812 23.9979 38.5995C24.0169 39.2583 23.756 39.8945 23.2797 40.3507C22.8035 40.807 22.1562 41.0407 21.4979 40.9942C20.4777 40.9933 19.5603 40.3733 19.1801 39.4275C18.7999 38.4818 19.0333 37.4003 19.7697 36.6949C20.506 35.9895 21.5977 35.8019 22.5278 36.2208Z" fill="#696871"/>
<path fill-rule="evenodd" clip-rule="evenodd" d="M32.3882 33.4218C30.3334 34.2763 28.9961 36.2848 29.0002 38.5102C28.9863 39.9721 29.5616 41.3781 30.5964 42.4109C31.6311 43.4437 33.0382 44.0163 34.5 43.9996C36.7254 43.9996 38.7315 42.6586 39.5822 40.6022C40.4328 38.5458 39.9604 36.1795 38.3853 34.6074C36.8103 33.0353 34.443 32.5673 32.3882 33.4218ZM34.4576 36.0004C35.8298 35.9769 36.9645 37.0635 37 38.4351H36.9784C37.0145 39.1106 36.7679 39.7707 36.2977 40.2571C35.8275 40.7435 35.1761 41.0125 34.4996 40.9996C33.1272 40.9991 32.0116 39.8928 32.0001 38.5208C31.9886 37.1488 33.0854 36.0239 34.4576 36.0004Z" fill="#696871"/>
<path fill-rule="evenodd" clip-rule="evenodd" d="M43 29C41.8954 29 41 29.8954 41 31C41.006 32.1021 41.8979 32.994 43 33C44.1046 33 45 32.1046 45 31C45 29.8954 44.1046 29 43 29ZM44 34H41V44H44V34Z" fill="#696871"/>
<path fill-rule="evenodd" clip-rule="evenodd" d="M56.6745 42.349C57.5927 41.3085 58.067 39.9364 57.9923 38.5369C58.0642 37.1391 57.5887 35.7697 56.6707 34.7315C55.7528 33.6933 54.4683 33.0718 53.1012 33.0046C51.9493 32.948 50.8321 33.4165 50.0506 34.2837V33.2958H47V48H50.0506V42.8005C50.8321 43.6677 51.9493 44.1361 53.1012 44.0796C54.4701 44.0124 55.7563 43.3895 56.6745 42.349ZM52.4793 36.0001C53.8437 35.9886 54.9655 37.072 55 38.4347H54.9792C55.0287 39.1241 54.7776 39.8012 54.2904 40.2919C53.8032 40.7826 53.1275 41.039 52.4371 40.9952C51.0731 40.9607 49.9886 39.84 50.0001 38.4769C50.0116 37.1138 51.1149 36.0116 52.4793 36.0001Z" fill="#696871"/>
<path d="M67 40.5664C67 42.9605 64.8898 43.9821 62.5686 43.9821C60.6715 44.1464 58.863 43.166 58 41.5054L60.7644 39.9678C60.9956 40.7413 61.7467 41.2525 62.5686 41.1959C63.3388 41.1959 63.7186 40.9585 63.7186 40.5457C63.7186 39.4003 58.4431 40.0091 58.4431 36.4179C58.4431 34.1476 60.4056 33.0021 62.6635 33.0021C64.3603 32.9517 65.9516 33.8049 66.8206 35.2311L64.0457 36.6552C63.7953 36.0984 63.2327 35.7384 62.6108 35.7368C62.0621 35.7368 61.7245 35.9432 61.7245 36.325C61.7667 37.5118 67 36.7172 67 40.5664Z" fill="#696871"/>
<path d="M78 33V42.713H74.8912V41.8072C74.1576 42.6236 73.0482 43.0641 71.9067 42.9924C69.8342 42.9924 68 41.5952 68 38.9646V33H71.1088V38.5406C71.0534 39.0188 71.2324 39.4948 71.5961 39.8367C71.9598 40.1786 72.4696 40.3502 72.9845 40.304C74.1244 40.304 74.9223 39.6873 74.9223 38.3094V33H78Z" fill="#696871"/>
<path d="M95 37.0404V43H92.01V37.2911C92.01 36.3268 91.5216 35.6903 90.5648 35.6903C89.608 35.6903 88.99 36.375 88.99 37.5226V43H86V37.2911C86 36.3268 85.5216 35.6903 84.5548 35.6903C83.588 35.6903 82.99 36.375 82.99 37.5226V43H80V33.2795H82.99V34.1763C83.625 33.3716 84.6377 32.9325 85.6811 33.0095C86.7301 32.9602 87.7289 33.4471 88.3123 34.2921C88.9903 33.4092 90.0892 32.925 91.2226 33.0095C93.495 33.0095 95 34.6103 95 37.0404Z" fill="#696871"/>
<path d="M98 34C99.1046 34 100 32.8807 100 31.5C100 30.1193 99.1046 29 98 29C96.8954 29 96 30.1193 96 31.5C96 32.8807 96.8954 34 98 34Z" fill="#696871"/>
<path d="M33.5 21C39.299 21 44 16.299 44 10.5C44 4.70101 39.299 0 33.5 0C27.701 0 23 4.70101 23 10.5C23 16.299 27.701 21 33.5 21Z" fill="#696871"/>
<path d="M57.5 21C63.299 21 68 16.299 68 10.5C68 4.70101 63.299 0 57.5 0C51.701 0 47 4.70101 47 10.5C47 16.299 51.701 21 57.5 21Z" fill="#696871"/>
<rect width="21" height="21" fill="#696871"/>
</svg>
