<svg width="118" height="24" viewBox="0 0 118 24" fill="none" xmlns="http://www.w3.org/2000/svg">
<path d="M38.4975 19.9959C37.8522 20.03 37.2139 19.8513 36.6856 19.4887C36.2375 19.1651 35.9818 18.6473 36.0021 18.1044V8.30854C35.9915 8.2245 36.0211 8.14035 36.0826 8.08047C36.1441 8.0206 36.2305 7.99167 36.3168 8.00209H38.1394C38.3456 8.00209 38.4432 8.10776 38.4432 8.30854V17.3435C38.4432 17.7451 38.6276 17.9459 39.0074 17.9459C39.1683 17.9523 39.3294 17.9345 39.4847 17.893C39.7017 17.893 39.8211 17.9564 39.8319 18.1466L39.9946 19.4675C40.0105 19.5454 39.9909 19.6262 39.941 19.689C39.891 19.7518 39.8157 19.7905 39.7343 19.7951C39.335 19.9236 38.9179 19.9913 38.4975 19.9959V19.9959Z" fill="#696871"/>
<path fill-rule="evenodd" clip-rule="evenodd" d="M41.118 18.8908C42.7988 20.3697 45.2288 20.3697 46.9097 18.8908V18.8805C48.3634 17.2659 48.3634 14.7178 46.9097 13.1031C45.2261 11.6323 42.8015 11.6323 41.118 13.1031C39.6273 14.7058 39.6273 17.2882 41.118 18.8908ZM45.4446 17.4544C44.6247 18.1819 43.3753 18.1819 42.5554 17.4544C41.8149 16.6205 41.8149 15.3795 42.5554 14.5456C43.3753 13.8181 44.6247 13.8181 45.4446 14.5456C46.1851 15.3795 46.1851 16.6205 45.4446 17.4544Z" fill="#696871"/>
<path fill-rule="evenodd" clip-rule="evenodd" d="M57.998 12.5101C57.998 12.3246 57.9114 12.227 57.7286 12.227L56.1317 12.2368C56.0568 12.2303 55.983 12.2585 55.9307 12.3134C55.8785 12.3683 55.8534 12.4441 55.8623 12.5199V12.6761C55.2753 12.2204 54.5521 11.9826 53.8133 12.0024C52.7998 11.9657 51.8146 12.346 51.0812 13.0569C49.6396 14.5706 49.6396 16.9716 51.0812 18.4853C51.8112 19.2027 52.7978 19.587 53.8133 19.5495C54.5313 19.5702 55.2356 19.3469 55.8142 18.9149V19.53C55.8339 19.9824 55.6705 20.4233 55.3621 20.7504C55.0246 21.0631 54.5774 21.2249 54.1211 21.1996C53.7468 21.2072 53.3765 21.1199 53.0437 20.9457C52.7707 20.7959 52.5617 20.549 52.4569 20.2525C52.4039 20.1207 52.2796 20.0328 52.1394 20.0279H50.5233C50.2635 20.0279 50.2635 20.1158 50.2635 20.3111C50.3989 21.1111 50.8552 21.8182 51.5238 22.2638C52.2983 22.7733 53.2083 23.0289 54.1308 22.996C55.152 23.0417 56.1523 22.6928 56.9301 22.0197C57.6398 21.3889 58.032 20.4673 57.998 19.5105V12.5101ZM55.4608 17.4335C55.0964 17.8075 54.5688 18.0147 54.0204 17.9992C53.4662 18.0138 52.9325 17.8072 52.559 17.4335C52.1819 17.0386 51.9828 16.5282 52.0018 16.0048C51.9786 15.4763 52.1823 14.9604 52.5695 14.5666C52.9422 14.1918 53.4764 13.985 54.0309 14.0009C54.5742 13.9846 55.0977 14.1881 55.4608 14.557C56.1797 15.4038 56.1797 16.5868 55.4608 17.4335Z" fill="#696871"/>
<path fill-rule="evenodd" clip-rule="evenodd" d="M61.0949 18.8956C62.7841 20.3681 65.2168 20.3681 66.906 18.8956V18.8853C68.3647 17.2689 68.3647 14.7178 66.906 13.1014C65.2155 11.6329 62.7854 11.6329 61.0949 13.1014C59.635 14.7213 59.635 17.2757 61.0949 18.8956ZM64.0051 17.9991C63.4642 18.0153 62.9391 17.8193 62.547 17.4548C61.8177 16.6159 61.8177 15.3841 62.547 14.5452C62.9391 14.1807 63.4642 13.9847 64.0051 14.0009C64.5425 13.9873 65.0634 14.1831 65.453 14.5452C66.1823 15.3841 66.1823 16.6159 65.453 17.4548C65.0634 17.8169 64.5425 18.0127 64.0051 17.9991Z" fill="#696871"/>
<path fill-rule="evenodd" clip-rule="evenodd" d="M69.4266 10.5638C70.0411 11.1454 70.9589 11.1454 71.5734 10.5638C71.8457 10.2859 72 9.89901 72 9.49419C72 9.08937 71.8457 8.70245 71.5734 8.42461C70.9536 7.85846 70.0464 7.85846 69.4266 8.42461C69.1543 8.70245 69 9.08937 69 9.49419C69 9.89901 69.1543 10.2859 69.4266 10.5638ZM69.6748 19.4863C70.2045 19.8481 70.8417 20.0276 71.4866 19.9966C71.9106 19.9927 72.3315 19.9245 72.7343 19.7946C72.8157 19.79 72.891 19.751 72.941 19.6878C72.9909 19.6247 73.0105 19.5434 72.9946 19.465L72.8319 18.1362C72.8211 17.9448 72.7017 17.881 72.4847 17.881C72.3255 17.922 72.161 17.94 71.9965 17.9342C71.6276 17.9342 71.4432 17.7322 71.4432 17.3282V12.3104C71.4432 12.1084 71.3456 12.0021 71.1394 12.0021H69.3168C69.2305 11.9916 69.1441 12.0207 69.0826 12.081C69.0211 12.1412 68.9915 12.2259 69.0021 12.3104V18.0936C68.983 18.6372 69.2337 19.1561 69.6748 19.4863Z" fill="#696871"/>
<path fill-rule="evenodd" clip-rule="evenodd" d="M82.848 13.0861C82.044 12.3546 80.9636 11.9654 79.8535 12.0072C78.8843 11.9871 77.949 12.3484 77.2675 13.0062C76.908 12.336 76.1584 11.9408 75.3724 12.0072C74.9871 12.0005 74.6038 12.0614 74.2417 12.187C74.09 12.229 73.9897 12.3664 74.0009 12.5167V13.6955C74.0009 13.8553 74.116 13.9352 74.3464 13.9352H74.6919C74.8621 13.9114 75.0342 13.9658 75.1559 14.0819C75.2776 14.198 75.3346 14.3622 75.3096 14.5246V22.7162C75.2944 22.7939 75.3203 22.8739 75.3789 22.9298C75.4375 22.9857 75.5213 23.0104 75.6028 22.9959H77.3617C77.5606 22.9959 77.6653 22.906 77.6653 22.7162V19.1099C78.3012 19.5479 79.0695 19.7759 79.8535 19.7593C80.9657 19.8019 82.0477 19.4085 82.848 18.6704C84.384 17.0974 84.384 14.659 82.848 13.0861ZM79.9894 18C79.4471 18 78.9284 17.799 78.5535 17.4437C78.1776 17.0417 77.9809 16.5268 78.002 16C77.9778 15.4728 78.1749 14.9569 78.5535 14.5563C78.9284 14.201 79.4471 14 79.9894 14C80.5317 14 81.0504 14.201 81.4253 14.5563C81.8191 14.95 82.0248 15.4691 81.9976 16C82.0215 16.5305 81.8161 17.0484 81.4253 17.4437C81.0504 17.799 80.5317 18 79.9894 18Z" fill="#696871"/>
<path d="M87.6403 19.9958C86.7642 20.0336 85.8954 19.8136 85.1321 19.3607C84.5117 18.9684 84.095 18.3011 84 17.5475C84 17.3426 84.0683 17.2401 84.283 17.2401H85.7177C85.8568 17.2458 85.9812 17.3329 86.0397 17.4655C86.2447 18.0187 86.7814 18.2953 87.6403 18.2953C87.9398 18.3097 88.2382 18.2463 88.5089 18.1109C88.6992 18.0206 88.8268 17.8277 88.8407 17.6089C88.8407 17.3426 88.6845 17.1582 88.3722 17.0352C88.0018 16.9058 87.6189 16.8199 87.2304 16.7791C86.7702 16.7245 86.3138 16.6389 85.8641 16.523C85.4267 16.4191 85.029 16.18 84.7222 15.8367C84.357 15.3649 84.1949 14.7551 84.2744 14.1531C84.354 13.551 84.6682 13.0106 85.1419 12.6609C85.8453 12.1906 86.6707 11.9614 87.5036 12.0053C88.3101 11.9767 89.1081 12.1861 89.8069 12.6097C90.3772 12.9488 90.7716 13.5396 90.8804 14.2181C90.8804 14.4229 90.7926 14.5254 90.6169 14.5254H89.1725C89.048 14.5331 88.9318 14.4599 88.8797 14.341C88.7832 14.0984 88.6015 13.904 88.3722 13.798C88.1136 13.656 87.8247 13.5855 87.5329 13.5932C87.2468 13.5768 86.9615 13.6367 86.7034 13.7673C86.5173 13.8427 86.3937 14.0292 86.3911 14.2386C86.4039 14.5261 86.5939 14.7713 86.8595 14.843C87.2343 14.9912 87.6239 15.0943 88.0209 15.1503C88.4773 15.2133 88.9302 15.3022 89.3775 15.4166C89.8149 15.5206 90.2126 15.7596 90.5193 16.103C90.8508 16.4851 91.0229 16.9904 90.9975 17.5065C91.0147 18.2268 90.67 18.9037 90.0899 19.289C89.3607 19.7803 88.5063 20.0269 87.6403 19.9958V19.9958Z" fill="#696871"/>
<path d="M101.997 19.4564C102.008 19.5325 101.99 19.6104 101.948 19.6724C101.905 19.7343 101.841 19.7752 101.77 19.7856C101.411 19.9122 101.036 19.9802 100.659 19.9874C99.898 20.0725 99.1517 19.722 98.6908 19.0634C97.9958 19.7084 97.0971 20.0394 96.1818 19.9874C95.3225 20.0302 94.4863 19.6791 93.8795 19.0209C93.2773 18.3316 92.9611 17.4074 93.0038 16.4611V12.308C93.0038 12.1062 93.0924 12 93.2793 12H94.9323C95.1192 12 95.2078 12.1062 95.2078 12.308V16.1424C95.1898 16.6201 95.3411 17.0873 95.6308 17.4489C95.9234 17.784 96.3361 17.966 96.7623 17.9481C97.1979 17.9687 97.623 17.8004 97.943 17.4807C98.2461 17.1436 98.4064 16.686 98.3858 16.2168V12.308C98.3858 12.1062 98.4743 12 98.6613 12H100.334C100.521 12 100.609 12.1062 100.609 12.308V17.3108C100.609 17.725 100.777 17.9268 101.101 17.9268C101.254 17.9332 101.406 17.9153 101.554 17.8737C101.629 17.8509 101.71 17.8666 101.773 17.9163C101.837 17.966 101.876 18.0442 101.879 18.1287L101.997 19.4564Z" fill="#696871"/>
<path d="M117.993 19.4816C118.01 19.5562 117.995 19.6353 117.952 19.697C117.908 19.7588 117.84 19.7969 117.767 19.8007C117.401 19.9252 117.02 19.9911 116.636 19.9963C116.052 20.0279 115.474 19.854 114.994 19.5022C114.573 19.1961 114.326 18.69 114.336 18.1535V15.734C114.356 15.2723 114.209 14.8197 113.923 14.4677C113.643 14.1418 113.239 13.9643 112.822 13.9838C112.445 13.9689 112.083 14.1359 111.839 14.4368C111.579 14.7818 111.447 15.2129 111.465 15.6516V19.4507C111.465 19.6463 111.377 19.7493 111.19 19.7493H109.528C109.45 19.7594 109.372 19.7312 109.316 19.6729C109.261 19.6145 109.234 19.5326 109.243 19.4507V15.734C109.265 15.2774 109.129 14.8279 108.86 14.4677C108.617 14.1613 108.257 13.9839 107.877 13.9838C107.471 13.9666 107.078 14.1314 106.795 14.4368C106.514 14.7708 106.37 15.207 106.392 15.6516V19.4507C106.402 19.5326 106.375 19.6145 106.319 19.6729C106.264 19.7312 106.186 19.7594 106.107 19.7493H104.505C104.318 19.7493 104.23 19.6463 104.23 19.4507V14.6015C104.253 14.4341 104.2 14.2649 104.085 14.1452C103.971 14.0255 103.81 13.9695 103.65 13.9941H103.325C103.109 13.9941 103.001 13.9117 103.001 13.747V12.5321C102.99 12.3772 103.084 12.2356 103.227 12.1924C103.567 12.0629 103.927 12.0001 104.289 12.007C104.997 11.9438 105.678 12.3122 106.039 12.9542C106.709 12.2887 107.614 11.9456 108.536 12.007C109.434 11.9611 110.299 12.3665 110.865 13.0984C111.524 12.3485 112.47 11.9479 113.441 12.007C114.309 11.9645 115.154 12.3043 115.771 12.9439C116.375 13.6107 116.691 14.5075 116.646 15.4251V17.4122C116.646 17.8034 116.813 17.999 117.128 17.999C117.28 18.0065 117.433 17.9891 117.58 17.9475C117.783 17.9475 117.891 18.0299 117.904 18.1946L117.993 19.4816Z" fill="#696871"/>
<path fill-rule="evenodd" clip-rule="evenodd" d="M0 10.9715C1.48551 4.52507 6.84721 0 13 0C19.1528 0 24.5145 4.52507 26 10.9715H24.8257C22.8449 10.94 20.9046 11.5792 19.2774 12.7993C19.1835 12.8727 19.0854 12.9397 18.9838 13H18.8468C18.7452 12.9397 18.6472 12.8727 18.5533 12.7993C15.1954 10.3614 10.8046 10.3614 7.44674 12.7993C7.35284 12.8727 7.25479 12.9397 7.15318 13H7.01618C6.91457 12.9397 6.81653 12.8727 6.72262 12.7993C5.09542 11.5792 3.15515 10.94 1.17426 10.9715H0ZM23.2837 16.8135C23.8909 16.347 24.6435 16.1029 25.4129 16.123H27V13.0012H25.4129C24.0577 12.985 22.7335 13.4012 21.6375 14.1877C20.3714 15.1086 18.645 15.1086 17.379 14.1877C15.0772 12.6069 12.0213 12.6069 9.71961 14.1877C8.45355 15.1086 6.72718 15.1086 5.46112 14.1877C4.35154 13.3911 3.00834 12.9745 1.63636 13.0012H0V16.123H1.58708C2.35647 16.1029 3.10908 16.347 3.71632 16.8135C6.01407 18.3955 9.06807 18.3955 11.3658 16.8135C11.9738 16.3484 12.7259 16.1045 13.4951 16.123C14.2647 16.1013 15.0179 16.3455 15.6243 16.8135C17.926 18.3943 20.9819 18.3943 23.2837 16.8135ZM25.4129 22.123C24.6435 22.1029 23.8909 22.347 23.2837 22.8135C20.9819 24.3943 17.926 24.3943 15.6243 22.8135C15.0179 22.3455 14.2647 22.1013 13.4951 22.123C12.7259 22.1045 11.9738 22.3484 11.3658 22.8135C9.06807 24.3955 6.01407 24.3955 3.71632 22.8135C3.10908 22.347 2.35647 22.1029 1.58708 22.123H0V19.0012H1.63636C3.00834 18.9745 4.35154 19.3911 5.46112 20.1877C6.72718 21.1086 8.45355 21.1086 9.71961 20.1877C12.0213 18.6069 15.0772 18.6069 17.379 20.1877C18.645 21.1086 20.3714 21.1086 21.6375 20.1877C22.7335 19.4012 24.0577 18.985 25.4129 19.0012H27V22.123H25.4129Z" fill="#696871"/>
</svg>
