<svg width="123" height="28" viewBox="0 0 123 28" fill="none" xmlns="http://www.w3.org/2000/svg">
<path d="M26.2322 10C26.5735 10 26.6872 10.1292 26.6872 10.4771V18.3499H30.545C30.8768 18.3499 31 18.4791 31 18.827V19.5229C31 19.8708 30.8768 20 30.545 20H25.4645C25.1327 20 25 19.8708 25 19.5229V10.4771C25 10.1292 25.1327 10 25.4645 10H26.2322Z" fill="#696871"/>
<path fill-rule="evenodd" clip-rule="evenodd" d="M39 10C36.46 10 35 11.3263 35 13.5305V16.4695C35 18.6737 36.47 20 39 20C41.53 20 43 18.6737 43 16.4695V13.5305C43 11.3263 41.54 10 39 10ZM39.4945 12C41.106 12 42 12.6901 42 13.9718V17.0282C42 18.2901 41.106 19 39.4945 19C37.883 19 37 18.3197 37 17.0282V13.9718C37 12.7 37.883 12 39.4945 12Z" fill="#696871"/>
<path d="M54.5228 14.5761C54.9098 14.5761 54.9992 14.7 54.9992 15.0337V16.8451C55.0205 17.7092 54.6338 18.5363 53.9472 19.095C53.1053 19.739 52.0437 20.0585 50.9698 19.9912C48.3994 19.9912 47 18.666 47 16.4638V13.5083C47 11.3347 48.449 10 50.9698 10C52.9547 10 54.2449 10.7532 54.7907 12.2595C54.8527 12.3742 54.8546 12.5103 54.796 12.6266C54.7374 12.743 54.6251 12.826 54.493 12.8505L53.7189 13.1079C53.3815 13.2223 53.2425 13.1556 53.1234 12.8219C52.7852 11.9842 51.8983 11.4738 50.9698 11.5826C49.5109 11.5826 48.7169 12.2595 48.7169 13.4893V16.521C48.7169 17.7698 49.5208 18.4277 50.9698 18.4277C52.4188 18.4277 53.312 17.7889 53.312 16.8546V16.1491H51.1584C50.8011 16.1491 50.6721 16.0157 50.6721 15.682V15.0337C50.6721 14.7 50.8011 14.5761 51.1584 14.5761H54.5228Z" fill="#696871"/>
<path fill-rule="evenodd" clip-rule="evenodd" d="M63 10C60.46 10 59 11.3263 59 13.5305V16.4695C59 18.6737 60.47 20 63 20C65.53 20 67 18.6737 67 16.4695V13.5305C67 11.3263 65.54 10 63 10ZM63.5055 12C65.106 12 66 12.6901 66 13.9718V17.0282C66 18.2901 65.117 19 63.5055 19C61.894 19 61 18.3197 61 17.0282V13.9718C61 12.7 61.9051 12 63.5055 12Z" fill="#696871"/>
<path d="M72 10.2883C72 10.0696 72.0686 10 72.2843 10H72.7353C72.951 10 73 10.0696 73 10.2883V19.7117C73 19.9304 73 20 72.7353 20H72.2843C72.0686 20 72 19.9304 72 19.7117V10.2883Z" fill="#696871"/>
<path fill-rule="evenodd" clip-rule="evenodd" d="M85 13.1213C85 11.3974 83.6256 10 81.9302 10H78.2835C78.0782 10 78 10.0696 78 10.2883V19.7117C78 19.9304 78.0782 20 78.2835 20H78.743C78.9483 20 78.9972 19.9304 78.9972 19.7117V16.2425H81.9302C83.6256 16.2425 85 14.8451 85 13.1213ZM83.7181 14C83.3422 14.6188 82.6475 15 81.8958 15H79V11H81.8958C82.6475 11 83.3422 11.3812 83.7181 12C84.094 12.6188 84.094 13.3812 83.7181 14Z" fill="#696871"/>
<path d="M92.9724 10.0208C94.6134 9.85472 96.1786 10.6959 96.8226 12.09C96.9054 12.2419 96.8226 12.3653 96.657 12.4412L96.2016 12.631C96.0153 12.6975 95.9429 12.688 95.829 12.5076C95.3479 11.4738 94.1926 10.8442 92.9724 10.951C91.2232 10.951 90.271 11.5869 90.271 12.7259C90.25 13.4457 90.811 14.0695 91.5855 14.1877C92.1422 14.3542 92.7193 14.4562 93.3036 14.4914C94.0109 14.526 94.7086 14.6572 95.3736 14.8806C96.4245 15.1855 97.0984 16.1243 96.9883 17.1301C96.9883 18.9051 95.5806 19.9776 92.9931 19.9776C91.2443 20.1611 89.593 19.2003 89.029 17.6711C88.992 17.6026 88.9903 17.5226 89.0244 17.4528C89.0584 17.383 89.1246 17.3308 89.205 17.3105L89.6604 17.1586C89.7329 17.1314 89.8145 17.1334 89.8854 17.1641C89.9562 17.1948 90.0098 17.2513 90.033 17.3199C90.5081 18.4203 91.7058 19.1116 92.9931 19.0285C94.9493 19.0285 95.9118 18.402 95.9118 17.1301C95.9495 16.4397 95.4373 15.8255 94.7009 15.6779C94.1653 15.5314 93.6131 15.4422 93.0552 15.4121L91.9374 15.2792C91.5876 15.2111 91.242 15.1256 90.9024 15.0229C90.5669 14.93 90.2541 14.7785 89.9812 14.5768C89.4254 14.1152 89.122 13.451 89.1532 12.7639C89.2257 11.1029 90.5815 10.0208 92.9724 10.0208Z" fill="#696871"/>
<path d="M102.081 16.4654C102.174 17.8948 103.451 19.0101 104.995 19.0101C106.539 19.0101 107.816 17.8948 107.908 16.4654V10.2824C107.908 10.0682 107.982 10 108.213 10H108.696C108.927 10 109 10.0682 109 10.2824V16.4557C109 18.666 107.593 20 105 20C102.407 20 101 18.666 101 16.4557V10.2824C101 10.0682 101.073 10 101.294 10H101.787C102.008 10 102.081 10.0682 102.081 10.2824V16.4654Z" fill="#696871"/>
<path d="M122.714 10.0017C122.931 10.0017 123 10.0713 123 10.2899V19.7118C123 19.9304 122.931 20 122.714 20H122.299C122.092 20 122.023 19.9304 122.023 19.7118V13.9772C122.023 13.1428 122.079 12.3093 122.191 11.4826H122.132C121.823 12.2386 121.464 12.9725 121.056 13.679L118.934 17.4458C118.881 17.5795 118.752 17.6665 118.609 17.6644H118.332C118.187 17.6651 118.056 17.5793 117.997 17.4458L115.845 13.6393C115.463 12.9428 115.133 12.2186 114.859 11.4726H114.799C114.9 12.307 114.953 13.1466 114.957 13.9871V19.7118C114.957 19.9304 114.888 20 114.671 20H114.286C114.069 20 114 19.9304 114 19.7118V10.2899C114 10.0713 114.069 10.0017 114.286 10.0017H114.641C114.808 9.98611 114.966 10.0777 115.036 10.2303L118.49 16.4121L121.924 10.2899C122.033 10.0812 122.092 10.0514 122.309 10.0514L122.714 10.0017Z" fill="#696871"/>
<path fill-rule="evenodd" clip-rule="evenodd" d="M2 0.922453V21.0676C2 21.3149 1.90568 21.5521 1.73779 21.7269C1.5699 21.9018 1.34219 22 1.10476 22H0.895238C0.400812 22 0 21.5826 0 21.0676V0.922453C0.00522054 0.411396 0.404507 -2.89199e-05 0.895238 1.5247e-09H1.10476C1.59549 -2.89199e-05 1.99478 0.411396 2 0.922453ZM14.2954 13.2534C14.4843 13.0797 14.7387 12.9886 14.9993 13.0012L14.9517 13.0195C15.2286 12.9922 15.5041 13.0834 15.7054 13.2689C15.9068 13.4544 16.0139 13.7157 15.9985 13.9839V19.0356C15.9985 19.5682 15.5512 20 14.9993 20C14.4474 20 14 19.5682 14 19.0356V13.9196C13.9997 13.6679 14.1064 13.427 14.2954 13.2534ZM17 15.9104C17 15.4097 17.4281 15.0038 17.9563 15.0038C18.233 14.9797 18.507 15.0709 18.7072 15.2537C18.9073 15.4364 19.0137 15.6927 18.9986 15.9557V17.0526C18.9986 17.5759 18.5512 18 17.9993 18C17.4474 18 17 17.5759 17 17.0526V15.9104ZM9 23.9897V17C8.70076 17.2298 8.33267 17.3492 7.95694 17.3384C7.61228 17.3297 7.27843 17.2151 7 17.0097V23.9897C7 24.5477 7.44772 25 8 25C8.55229 25 9 24.5477 9 23.9897ZM3.95238 20.3277C3.60968 20.3173 3.27794 20.2032 3 20V26.988C3 27.5469 3.44772 28 4 28C4.55228 28 5 27.5469 5 26.988V20.0482C4.689 20.2516 4.32206 20.3495 3.95238 20.3277ZM11 15.3269C10.6413 15.3244 10.2921 15.2103 10 15V21.9904C10 22.548 10.4477 23 11 23C11.5523 23 12 22.548 12 21.9904V15.0096C11.6979 15.2368 11.329 15.3553 10.9524 15.3462L11 15.3269ZM4.10476 18.9804H3.89524C3.40081 18.9804 3 18.5683 3 18.0599V2.91071C3.00522 2.40616 3.40451 1.99997 3.89524 2H4.10476C4.59549 1.99997 4.99478 2.40616 5 2.91071V18.0795C5 18.5879 4.59919 19 4.10476 19V18.9804ZM7.88998 17H8.11007C8.60157 17 9 16.6025 9 16.1122V5.89737C9.00003 5.40547 8.60311 5.00523 8.11007 5H7.88998C7.65229 4.99999 7.42447 5.09483 7.2573 5.2634C7.09013 5.43198 6.9975 5.66026 7.00005 5.89737V16.1122C7.00005 16.6025 7.39849 17 7.88998 17ZM11.096 15H10.8962C10.406 15 10.007 14.5685 10.0018 14.0325V8.04031C9.98603 7.77033 10.0732 7.50525 10.2427 7.30812C10.4122 7.111 10.6488 6.99945 10.8962 7H11.1056C11.5995 7 11.9999 7.43782 11.9999 7.9779V14.0117C12.0025 14.2729 11.9094 14.5243 11.7414 14.7099C11.5734 14.8956 11.3444 15 11.1056 15H11.096ZM13.8952 12H14.1048H14.1143C14.605 11.9951 15 11.6208 15 11.1607V9.83036C14.9948 9.37032 14.5955 8.99997 14.1048 9H13.8952C13.4045 8.99997 13.0052 9.37032 13 9.83036V11.1607C13 11.6242 13.4008 12 13.8952 12Z" fill="#696871"/>
</svg>
